<?xml version="1.0" encoding="utf-8"?><!-- Uploaded to: SVG Repo, www.svgrepo.com, Generator: SVG Repo Mixer Tools -->
<svg xmlns="http://www.w3.org/2000/svg" width="18" height="13" viewBox="0 0 18 13" fill="none">
  <path d="M16.0856 3.88853L16.0856 3.88855L16.0899 3.88606C16.2569 3.7896 16.5831 3.52045 16.8471 3.27165C16.9852 3.14153 17.126 2.99867 17.2361 2.86519C17.2906 2.79916 17.3467 2.72443 17.3918 2.64678C17.4256 2.58857 17.4953 2.46011 17.4998 2.29938V11.375C17.4998 11.9457 16.963 12.5 16.1998 12.5H1.79977C1.03658 12.5 0.499773 11.9457 0.499773 11.375V1.625C0.499773 1.05427 1.03658 0.5 1.79977 0.5H16.1998C16.963 0.5 17.4998 1.05427 17.4998 1.625V2.26408C17.4954 2.08001 17.4273 1.91034 17.3045 1.77678C17.1872 1.64918 17.043 1.57895 16.921 1.53867C16.6834 1.46025 16.4076 1.45571 16.1694 1.47378C15.6906 1.5101 15.1233 1.65962 14.7874 1.84582L14.7874 1.84581L14.784 1.84772L8.99977 5.11332L3.21559 1.84772L3.2156 1.84771L3.21219 1.84582C3.05627 1.75939 2.84134 1.66271 2.61765 1.58795C2.40322 1.51629 2.13168 1.44789 1.87896 1.45621C1.75118 1.46042 1.58682 1.48524 1.43269 1.57613C1.2614 1.67715 1.13662 1.84075 1.08907 2.04744C1.04608 2.23426 1.07397 2.42042 1.12288 2.58276C1.16387 2.71882 1.22723 2.86309 1.30945 3.01564C1.35858 3.38735 1.59069 3.70178 1.90963 3.88606L1.90962 3.88608L1.91395 3.88853L7.79835 7.21074C7.79862 7.21089 7.79888 7.21105 7.79915 7.2112C8.53712 7.63105 9.46236 7.63106 10.2003 7.21123C10.2006 7.21107 10.2009 7.21091 10.2012 7.21074L16.0856 3.88853Z" stroke="#6563DD"/>
</svg>