<svg width="376" height="370" viewBox="0 0 376 370" fill="none" xmlns="http://www.w3.org/2000/svg">
<g clip-path="url(#clip0_179_9159)">
<path d="M293.273 197.14C326.335 197.14 353.137 170.334 353.137 137.267C353.137 104.2 326.335 77.3944 293.273 77.3944C260.21 77.3944 233.408 104.2 233.408 137.267C233.408 170.334 260.21 197.14 293.273 197.14Z" fill="white"/>
<path d="M96.3177 197.14C129.38 197.14 156.182 170.334 156.182 137.267C156.182 104.2 129.38 77.3944 96.3177 77.3944C63.2554 77.3944 36.4531 104.2 36.4531 137.267C36.4531 170.334 63.2554 197.14 96.3177 197.14Z" fill="white"/>
<path d="M131.591 88.9446C137.719 98.3733 141.254 109.531 141.254 121.631C141.254 154.71 114.465 181.503 81.3898 181.503C68.1913 181.503 56.0141 177.182 46.1152 169.953C56.7997 186.375 75.2619 197.14 96.3166 197.14C129.391 197.14 156.181 170.346 156.181 137.267C156.103 117.467 146.439 99.8662 131.591 88.9446Z" fill="#EFEFEF"/>
<path d="M328.47 88.9446C334.598 98.3733 338.133 109.531 338.133 121.631C338.133 154.71 311.343 181.503 278.269 181.503C265.07 181.503 252.893 177.182 242.994 169.953C253.679 186.375 272.141 197.14 293.196 197.14C326.27 197.14 353.06 170.346 353.06 137.267C353.06 117.467 343.397 99.8662 328.47 88.9446Z" fill="#EFEFEF"/>
<path d="M96.3174 199.89C61.8285 199.89 33.7031 171.76 33.7031 137.267C33.7031 102.773 61.8285 74.6443 96.3174 74.6443C130.806 74.6443 158.932 102.773 158.932 137.267C158.932 171.76 130.885 199.89 96.3174 199.89ZM96.3174 80.1444C64.8139 80.1444 39.2025 105.759 39.2025 137.267C39.2025 168.775 64.8139 194.389 96.3174 194.389C127.821 194.389 153.432 168.775 153.432 137.267C153.432 105.759 127.821 80.1444 96.3174 80.1444Z" fill="#231F20"/>
<path d="M94.7454 153.139C105.723 153.139 114.622 144.239 114.622 133.26C114.622 122.281 105.723 113.381 94.7454 113.381C83.7681 113.381 74.8691 122.281 74.8691 133.26C74.8691 144.239 83.7681 153.139 94.7454 153.139Z" fill="#231F20"/>
<path d="M89.8756 137.817C94.388 137.817 98.0461 134.158 98.0461 129.645C98.0461 125.132 94.388 121.474 89.8756 121.474C85.3631 121.474 81.7051 125.132 81.7051 129.645C81.7051 134.158 85.3631 137.817 89.8756 137.817Z" fill="white"/>
<path d="M293.273 153.139C304.25 153.139 313.149 144.239 313.149 133.26C313.149 122.281 304.25 113.381 293.273 113.381C282.295 113.381 273.396 122.281 273.396 133.26C273.396 144.239 282.295 153.139 293.273 153.139Z" fill="#231F20"/>
<path d="M288.403 137.817C292.915 137.817 296.573 134.158 296.573 129.645C296.573 125.132 292.915 121.474 288.403 121.474C283.89 121.474 280.232 125.132 280.232 129.645C280.232 134.158 283.89 137.817 288.403 137.817Z" fill="white"/>
<path d="M293.272 199.89C258.784 199.89 230.658 171.76 230.658 137.267C230.658 102.773 258.784 74.6443 293.272 74.6443C327.761 74.6443 355.887 102.773 355.887 137.267C355.887 171.76 327.84 199.89 293.272 199.89ZM293.272 80.1444C261.769 80.1444 236.158 105.759 236.158 137.267C236.158 168.775 261.769 194.389 293.272 194.389C324.776 194.389 350.387 168.775 350.387 137.267C350.387 105.759 324.776 80.1444 293.272 80.1444Z" fill="#231F20"/>
<path d="M5.6561 64.4298C17.7547 72.2871 17.4405 49.8938 39.8308 34.4149C58.4501 21.529 75.9695 28.9148 76.0481 18.3075C76.1266 7.70015 54.8362 0.942873 26.7108 18.0718C5.73466 30.8006 -8.40658 55.2368 5.6561 64.4298Z" fill="#231F20"/>
<path d="M370.028 58.4583C357.694 65.9227 358.715 43.608 336.875 27.3434C318.648 13.8288 300.972 20.6647 301.207 10.0573C301.443 -0.550012 322.969 -6.60013 350.545 11.3931C371.049 24.9076 384.327 49.7367 370.028 58.4583Z" fill="#231F20"/>
<path d="M202.925 337.549C157.516 337.628 105.822 335.899 106.686 309.499C107.551 283.098 152.567 221.497 202.925 224.404C253.284 227.39 307.964 280.898 298.065 310.599C288.166 340.378 227.594 337.549 202.925 337.549Z" fill="#231F20"/>
<path d="M160.817 368.586C178.807 362.771 198.291 361.75 216.832 365.521C222.174 366.621 227.359 368.114 232.466 369.921C233.408 370.236 234.508 369.529 234.744 368.664C235.058 367.643 234.43 366.779 233.487 366.386C215.103 359.707 195.148 358.057 175.901 361.2C170.48 362.064 165.138 363.4 159.952 365.05C157.596 365.757 158.538 369.293 160.817 368.586Z" fill="#231F20"/>
</g>
<defs>
<clipPath id="clip0_179_9159">
<rect width="376" height="370" fill="white"/>
</clipPath>
</defs>
</svg>
